<?xml version="1.0" encoding="UTF-8"?>
<svg id="Calque_1" data-name="Calque 1" xmlns="http://www.w3.org/2000/svg" viewBox="0 0 500 500">
  <defs>
    <style>
      .cls-1 {
        fill: #bfffcb;
      }

      .cls-1, .cls-2 {
        stroke: #333;
        stroke-miterlimit: 10;
      }

      .cls-2 {
        fill: #00dbff;
      }
    </style>
  </defs>
  <path class="cls-1" d="M137.44,137.44c-62.17,62.17-62.17,162.95,0,225.12,62.17,62.17,162.95,62.17,225.12,0,62.17-62.17,62.17-162.95,0-225.12-62.17-62.17-162.95-62.17-225.12,0Zm74.46,189.91c-10.84,10.84-28.41,10.84-39.25,0-10.84-10.84-10.84-28.41,0-39.25,10.84-10.84,28.41-10.84,39.25,0,10.84,10.84,10.84,28.41,0,39.25Zm115.45,0c-10.84,10.84-28.41,10.84-39.25,0-10.84-10.84-10.84-28.41,0-39.25s28.41-10.84,39.25,0c10.84,10.84,10.84,28.41,0,39.25Zm-115.45-115.45c-10.84,10.84-28.41,10.84-39.25,0-10.84-10.84-10.84-28.41,0-39.25,10.84-10.84,28.41-10.84,39.25,0,10.84,10.84,10.84,28.41,0,39.25Zm115.45,0c-10.84,10.84-28.41,10.84-39.25,0-10.84-10.84-10.84-28.41,0-39.25,10.84-10.84,28.41-10.84,39.25,0,10.84,10.84,10.84,28.41,0,39.25Z"/>
  <g>
    <circle class="cls-2" cx="250" cy="168.37" r="27.76"/>
    <circle class="cls-2" cx="250" cy="331.63" r="27.76"/>
    <circle class="cls-2" cx="168.37" cy="250" r="27.76"/>
    <circle class="cls-2" cx="331.63" cy="250" r="27.76"/>
    <path class="cls-2" d="M250,50.82c-110.01,0-199.18,89.18-199.18,199.18s89.18,199.18,199.18,199.18,199.18-89.18,199.18-199.18S360.01,50.82,250,50.82Zm0,358.37c-87.91,0-159.18-71.27-159.18-159.18S162.09,90.82,250,90.82s159.18,71.27,159.18,159.18-71.27,159.18-159.18,159.18Z"/>
  </g>
</svg>